<?xml version="1.0" encoding="UTF-8"?>
<svg id="Layer_1" data-name="Layer 1" xmlns="http://www.w3.org/2000/svg" viewBox="0 0 103.33 102.65">
  <defs>
    <style>
      .cls-1 {
        fill: #fff;
      }

      .cls-2 {
        fill: #febf50;
      }

      .cls-3 {
        stroke-width: 1.44px;
      }

      .cls-3, .cls-4 {
        fill: none;
        stroke: #aa782b;
        stroke-miterlimit: 10;
      }

      .cls-4 {
        stroke-width: 2.08px;
      }
    </style>
  </defs>
  <circle class="cls-2" cx="51.99" cy="51.31" r="51.34"/>
  <path class="cls-1" d="m30.05,90.02c15.1-4.14,28.81-12.58,34.74-23.72,3.24-6.09,3.12-10.46,1.33-13.45-2.85-4.74-9.91-6.02-14.55-5.17,0,0-3.05-.08-6.88,2.24-2.65,1.6-5.68,4.36-8.33,9.08,0,0-2.81,5.95,1.01,7.85,3.82,1.9,9.2-5.12,7.01-19.2-1.28-5.31-7.24-13.48-17.57-9.7-4.34,2.24-7.32,5.23-9.15,8.95-2.2,4.46-2.73,9.95-1.95,16.43.82,5.12,5.52,18.99,14.92,26.79"/>
  <path class="cls-1" d="m70.82,53.96s-.91,5.48,3.29,7.97c4.57,2.72,10.06-1.79,10.06-1.79,0,0,3.72-2.93,1.5-9.06-1.23-3.41-4.05-3.92-7.6-3.63-3.91.33-6.63,2.76-7.25,6.51Z"/>
  <path class="cls-1" d="m63.25,28.17s-5.65,5.07-1.49,10.82c4.16,5.75,8.13,5.32,8.13,5.32,0,0,2.92,1.23,6.79-2.9,4.17-4.44,7-13.39,3.09-17.78-3.91-4.39-13.81.34-16.51,4.53Z"/>
  <path class="cls-1" d="m41.36,20.25s3.96-10.26,11.1-11.08c2.93-.34,6.78,1.38,7.85,5.54,1.53,5.94,1.28,12.61-3.42,15.5-7.8,4.82-13.45-.72-13.45-.72,0,0-4.68-2.44-2.09-9.24Z"/>
  <path class="cls-1" d="m18.07,31.17s-2.29-2.51-1.69-7.49c.6-4.95,4.17-9.15,9.99-9.15,4.14,0,6.61,1.24,7.77,7.22,1.33,6.86-4.36,11.34-6.72,12.01-2.99.85-7,.12-9.35-2.6Z"/>
  <path class="cls-4" d="m31.6,91.44c15.1-4.14,28.81-12.58,34.74-23.72,3.24-6.09,3.12-10.46,1.33-13.45-2.85-4.74-9.91-6.02-14.55-5.17,0,0-3.05-.08-6.88,2.24-2.65,1.6-5.68,4.36-8.33,9.08,0,0-2.81,5.95,1.01,7.85,3.82,1.9,9.2-5.12,7.01-19.2-1.28-5.31-7.24-13.48-17.57-9.7-4.34,2.24-7.32,5.23-9.15,8.95-2.2,4.46-2.73,9.95-1.95,16.43.82,5.12,5.52,18.99,14.92,26.79"/>
  <path class="cls-3" d="m72.37,55.39s-.91,5.48,3.29,7.97c4.57,2.72,10.06-1.79,10.06-1.79,0,0,3.72-2.93,1.5-9.06-1.23-3.41-4.05-3.92-7.6-3.63-3.91.33-6.63,2.76-7.25,6.51Z"/>
  <path class="cls-3" d="m64.8,29.6s-5.65,5.07-1.49,10.82c4.16,5.75,8.13,5.32,8.13,5.32,0,0,2.92,1.23,6.79-2.9,4.17-4.44,7-13.39,3.09-17.78-3.91-4.39-13.81.34-16.51,4.53Z"/>
  <path class="cls-3" d="m42.91,21.68s3.96-10.26,11.1-11.08c2.93-.34,6.78,1.38,7.85,5.54,1.53,5.94,1.28,12.61-3.42,15.5-7.8,4.82-13.45-.72-13.45-.72,0,0-4.68-2.44-2.09-9.24Z"/>
  <path class="cls-3" d="m19.62,32.59s-2.29-2.51-1.69-7.49c.6-4.95,4.17-9.15,9.99-9.15,4.14,0,6.61,1.24,7.77,7.22,1.33,6.86-4.36,11.34-6.72,12.01-2.99.85-7,.12-9.35-2.6Z"/>
</svg>