<?xml version="1.0" encoding="UTF-8"?>
<svg id="Layer_1" data-name="Layer 1" xmlns="http://www.w3.org/2000/svg" viewBox="0 0 113.9 76.5">
  <defs>
    <style>
      .cls-1 {
        fill: #fff;
      }

      .cls-2 {
        fill: #00a7b6;
        font-family: DazzleUnicase-Bold, 'Dazzle Unicase';
        font-size: 9px;
        font-weight: 700;
        isolation: isolate;
      }

      .cls-3 {
        letter-spacing: -.01em;
      }

      .cls-4 {
        letter-spacing: .01em;
      }

      .cls-5 {
        letter-spacing: -.02em;
      }

      .cls-6 {
        letter-spacing: -.07em;
      }

      .cls-7 {
        fill: none;
        stroke: #febf50;
        stroke-miterlimit: 10;
        stroke-width: .94px;
      }
    </style>
  </defs>
  <path class="cls-1" d="m5.98,44.92l2.57-23.05s7.02-2.39,13.07-2.91c6.05-.52,8.46-1.22,21.38,1,12.92,2.21,36.37,13.16,36.37,13.16l7.95-20.86,13.34,59.94-34.29-5.4,4.53-11.33s-15.94-9.42-35.17-12.37c-8.98-1.38-21.34-2.51-29.76,1.83Z"/>
  <path class="cls-7" d="m9.55,43.22l2.57-23.05s7.02-2.39,13.07-2.91c6.05-.52,8.46-1.22,21.38,1,12.92,2.21,36.37,13.16,36.37,13.16l7.95-20.86,13.34,59.94-34.29-5.4,4.53-11.33s-15.94-9.42-35.17-12.37c-8.98-1.38-21.34-2.51-29.76,1.83Z"/>
  <text class="cls-2" transform="translate(15.81 33.57) rotate(9.9)"><tspan class="cls-5" x="0" y="0">S</tspan><tspan class="cls-6" x="5.54" y="0">t</tspan><tspan x="9.87" y="0">a</tspan><tspan class="cls-3" x="16.89" y="0">r</tspan><tspan x="22.8" y="0">t </tspan><tspan class="cls-4" x="30.2" y="0">s</tspan><tspan x="34.06" y="0">wiping!</tspan></text>
</svg>